<svg width="1200" height="1400" viewBox="0 0 1200 1400" fill="none" xmlns="http://www.w3.org/2000/svg">
  <rect width="1200" height="1400" rx="48" fill="#F5EFE7"/>
  <rect width="1200" height="1400" rx="48" fill="url(#paint0_linear_1_2)" fill-opacity="0.9"/>
  <rect x="86" y="120" width="1028" height="1160" rx="36" fill="#F9F6F1" fill-opacity="0.58" stroke="#DCCBB9"/>
  <rect x="146" y="206" width="302" height="804" rx="22" fill="#E1D3C5"/>
  <rect x="182" y="240" width="230" height="736" rx="16" fill="#3F4348"/>
  <rect x="506" y="228" width="550" height="198" rx="28" fill="#F2E7DB"/>
  <rect x="506" y="470" width="550" height="560" rx="28" fill="#EEE4D8"/>
  <circle cx="781" cy="782" r="150" fill="#D4B692" fill-opacity="0.38"/>
  <path d="M580 1080C635 965 765 892 915 892C981 892 1041 906 1096 935V1180H580V1080Z" fill="#D1B18C" fill-opacity="0.72"/>
  <rect x="544" y="536" width="96" height="18" rx="9" fill="#8B6D56" fill-opacity="0.55"/>
  <rect x="676" y="536" width="214" height="18" rx="9" fill="#8B6D56" fill-opacity="0.26"/>
  <rect x="544" y="578" width="258" height="18" rx="9" fill="#8B6D56" fill-opacity="0.26"/>
  <defs>
    <linearGradient id="paint0_linear_1_2" x1="140" y1="68" x2="1050" y2="1316" gradientUnits="userSpaceOnUse">
      <stop stop-color="#FFF9F1"/>
      <stop offset="1" stop-color="#E7D5BF"/>
    </linearGradient>
  </defs>
</svg>
