<svg width="1200" height="1200" viewBox="0 0 1200 1200" fill="none" xmlns="http://www.w3.org/2000/svg">
  <rect width="1200" height="1200" rx="48" fill="#F7F1E8"/>
  <rect width="1200" height="1200" rx="48" fill="url(#paint0_linear_6_2)"/>
  <rect x="92" y="92" width="1016" height="1016" rx="36" fill="#FBF8F3" fill-opacity="0.55" stroke="#E3D7CA"/>
  <rect x="208" y="702" width="784" height="174" rx="28" fill="#E8D7C5"/>
  <ellipse cx="450" cy="544" rx="182" ry="146" fill="#F9F3EC"/>
  <ellipse cx="748" cy="452" rx="152" ry="112" fill="#D7B695"/>
  <path d="M656 436C656 359.784 717.784 298 794 298H834C910.216 298 972 359.784 972 436V462H656V436Z" fill="#454B53"/>
  <rect x="270" y="304" width="232" height="88" rx="30" fill="#B08D68"/>
  <rect x="296" y="330" width="180" height="16" rx="8" fill="#F7F1EA" fill-opacity="0.62"/>
  <circle cx="402" cy="790" r="56" fill="#F9F4EE"/>
  <circle cx="820" cy="790" r="56" fill="#F9F4EE"/>
  <defs>
    <linearGradient id="paint0_linear_6_2" x1="92" y1="96" x2="1092" y2="1100" gradientUnits="userSpaceOnUse">
      <stop stop-color="#FFF8F0"/>
      <stop offset="1" stop-color="#E7D5C0"/>
    </linearGradient>
  </defs>
</svg>
