<svg width="1600" height="1000" viewBox="0 0 1600 1000" fill="none" xmlns="http://www.w3.org/2000/svg">
  <rect width="1600" height="1000" rx="48" fill="#F5F0E8"/>
  <rect width="1600" height="1000" rx="48" fill="url(#paint0_linear_12_2)"/>
  <rect x="98" y="88" width="1404" height="824" rx="38" fill="#FBF8F3" fill-opacity="0.6" stroke="#E2D7CA"/>
  <rect x="226" y="270" width="300" height="456" rx="28" fill="#E5D5C4"/>
  <rect x="252" y="302" width="248" height="392" rx="20" fill="#474B52"/>
  <rect x="646" y="212" width="304" height="514" rx="28" fill="#F0E5D8"/>
  <rect x="680" y="248" width="236" height="444" rx="20" fill="#9D7E62"/>
  <rect x="1070" y="326" width="300" height="400" rx="28" fill="#E7D7C6"/>
  <rect x="1104" y="360" width="232" height="334" rx="20" fill="#D4B391"/>
  <circle cx="792" cy="154" r="46" fill="#B9926C"/>
  <path d="M792 222L814.9 268.4L866 275.8L829 311.8L837.6 362.8L792 338.8L746.4 362.8L755 311.8L718 275.8L769.1 268.4L792 222Z" fill="#F8F1E8"/>
  <defs>
    <linearGradient id="paint0_linear_12_2" x1="90" y1="90" x2="1492" y2="914" gradientUnits="userSpaceOnUse">
      <stop stop-color="#FFF8F0"/>
      <stop offset="1" stop-color="#E4D1BC"/>
    </linearGradient>
  </defs>
</svg>
